# Alias OBJ Model File
# Exported from SketchUp, (c) 2000-2012 Trimble Navigation Limited
# File units = meters

mtllib Hackathon logo x2.mtl

g Mesh1 Model

usemtl hackathon_logo_23
v -7.34911 1.22 5.44208
vt 0 0
vn 0 1 -0
v 7.7922 1.22 5.44208
vt 1 0
v 7.7922 1.22 -4.96937
vt 1 1
v -7.34911 1.22 -4.96937
vt 0 1
f 1/1/1 2/2/1 3/3/1 4/4/1 

vn 0 0 1
v -7.34911 -2.88765e-15 5.44208
v 7.7922 -2.88765e-15 5.44208
f 2/2/2 1/1/2 5/1/2 6/2/2 

vn -1 0 -0
v -7.34911 -2.88765e-15 -4.96937
f 1/1/3 4/4/3 7/4/3 5/1/3 

vn 0 0 -1
v 7.7922 -2.88765e-15 -4.96937
f 4/4/4 3/3/4 8/3/4 7/4/4 

vn 1 0 -0
f 3/3/5 2/2/5 6/2/5 8/3/5 

vn 0 -1 -0
f 6/2/6 5/1/6 7/4/6 8/3/6 

